<?xml version="1.0" encoding="UTF-8"?>
<svg id="Layer_1" data-name="Layer 1" xmlns="http://www.w3.org/2000/svg" viewBox="0 0 1831.44 521.82">
  <g>
    <path d="M943.15,232.04c-36.69-7.59-66.8-30.59-84.73-60.55-30.45-50.88-14.14-111.75,33.91-144.27,15.9-10.77,31.58-17.68,51.03-26.44-81.22-7.64-161.92,41.85-169.57,126.99-4.54,50.54,12.18,96.6,51.49,127.21,74.34,57.87,187.63,34.99,226.9-53.24-33.93,19.55-67.61,38.87-109.02,30.3Z"/>
    <path d="M741.2,285.92c4.83,3.54,19.87,1.33,24.56-3.29,4.26-4.2,1.28-16.96-1.96-22.61-2.63-4.59-13.81-8.04-19.93-6.04-6.49,2.12-15.2,10.98-14.63,16.2.49,4.48,6.34,11.63,11.95,15.74Z"/>
    <path d="M1088.61,253.77c-10.81,1.98-19.15,14.56-15.59,21.65,3.93,7.82,15.13,13.97,22.52,12.44,6.44-1.34,14.96-12.27,13.16-18.84-1.83-6.66-13.6-16.43-20.09-15.25Z"/>
    <path d="M695.67,262.93c-4.26,2.3-4.69,14.76-.46,17.12,3.54,1.98,13.75,1.97,16.33-1.13s4.82-12.26,1.53-14.6c-3.29-2.33-13.85-3.31-17.4-1.39Z"/>
    <path d="M1286.57,265.38c-24.63-1.38-53.96-2.99-79.43-4.4-4.45-.25-8.8-.49-13.15-.73-14.62-.47-22.67-2.26-33.59-.04-11.86,2.75-14.37,16-1.71,20.53,7.46,2.86,17.21,1.94,25.44,1.03,55.12-7.53,118.54-8.87,177.46-10.69,8.91-.31,7.67-.78,1.87-1.2-18.44-1.26-56.17-3.27-76.66-4.49h-.22Z"/>
    <path d="M1122.87,263.54c-4.26,2.3-4.69,14.76-.46,17.12,3.54,1.98,13.75,1.97,16.33-1.13,2.58-3.1,4.82-12.26,1.53-14.6-3.29-2.33-13.85-3.31-17.4-1.39Z"/>
    <path d="M544.96,266.01c24.66-1.38,54.02-2.99,79.52-4.4,4.46-.25,8.81-.49,13.16-.73,14.63-.47,22.69-2.26,33.63-.04,11.87,2.75,14.39,16,1.72,20.53-7.47,2.86-17.23,1.94-25.46,1.03-55.18-7.53-118.66-8.87-177.65-10.69-8.92-.31-7.68-.78-1.87-1.2,18.45-1.26,56.23-3.27,76.74-4.49h.22Z"/>
  </g>
  <g>
    <path d="M151.37,486.01h-44.1v-7.41c6.17-2.12,11.29-4.06,11.29-12.88v-40.58c0-10.06-5.29-15.35-14.64-15.35-6.53,0-12.88,4.94-16.23,7.76.35,1.94.53,4.23.53,6.35v40.05c0,10.06,6,13.05,10.94,14.29v7.76h-43.93v-7.41c6.17-2.12,11.29-4.06,11.29-12.88v-40.58c0-10.06-5.29-15.35-14.64-15.35-6,0-12.7,4.41-16.23,7.76v48.87c0,9.17,6.35,10.76,11.11,12v7.59H0v-7.76c6-1.59,13.23-3.71,13.23-13.06v-29.46c0-10.41-5.12-12.53-7.59-12.88l-5.47-.53v-7.76c4.41-1.59,9-3.88,13.41-6.17,5.29-2.82,10.06-6,13.23-8.47h8.82v6.88c7.59-5.82,15.7-9.35,26.11-9.35,11.47,0,19.05,3.88,23.11,11.11,7.41-5.47,15.7-11.11,29.11-11.11,17.64,0,26.29,9.17,26.29,26.46v40.05c0,10.06,6,13.05,11.11,14.29v7.76Z"/>
    <path d="M246.64,482.13c-2.82,3.18-8.29,5.65-14.82,5.65-7.41,0-13.41-1.94-17.64-7.06-4.41,3.71-12.53,8.64-26.64,8.64-16.58,0-30.17-7.76-30.17-23.46,0-21.17,24.87-27.17,36.52-30.52,6.53-1.94,12.88-3.88,17.64-5.47v-10.06c0-9.53-5.29-14.99-11.82-14.99-6,0-10.23,4.76-12.7,10.58-2.82,6.35-5.65,10.41-11.64,10.41-6.35,0-9.7-3.88-9.7-9.35,0-9.53,13.05-19.94,33.87-19.94s34.4,10.06,34.4,26.11v46.22c0,7.94,9.17,10.76,12.7,9.17v4.06ZM211.53,440.67c-12.53.53-31.4,8.82-31.4,22.23,0,10.06,5.47,15.52,14.47,15.52s16.94-6.53,16.94-15.7v-22.05Z"/>
    <path d="M341.02,413.5c-5.47,0-8.29-4.59-13.58-4.59-1.94,0-3.88,1.06-5.12,2.47,3.71,5.12,5.47,11.11,5.47,17.29,0,22.41-16.05,34.58-37.4,34.58-4.41,0-8.64-.53-12.88-1.59-1.06.71-2.82,2.12-2.82,3.7,0,6.35,15.52,5.82,31.4,7.41,16.58,1.59,33.52,5.29,33.52,21.7,0,22.58-28.23,27.34-45.69,27.34-12.17,0-40.93-1.06-40.93-18.88,0-6.17,4.94-11.47,9.7-15-6.17-2.29-9.53-6.7-9.53-13.41,0-7.23,7.76-14.11,13.23-17.99-9-6.17-13.58-15.7-13.58-26.46,0-21.17,16.76-33.52,36.87-33.52,9.35,0,19.05,2.65,26.46,8.47,4.59-6,12-9.7,19.58-9.7,6,0,13.58,3.53,13.58,10.23,0,4.41-4.06,7.94-8.29,7.94ZM276.45,490.42c-3,1.94-6.53,4.94-6.53,9,0,10.76,14.64,13.06,22.76,13.06,6.53,0,27.34-1.76,27.34-11.64,0-11.47-35.81-9.88-43.58-10.41ZM290.04,406.44c-12.88,0-15.52,13.76-15.52,24.17s4.06,22.58,16.05,22.58,15.52-14.47,15.52-23.64c0-10.06-3.88-23.11-16.05-23.11Z"/>
    <path d="M395.01,486.01h-46.75v-7.41c6-1.59,13.23-3.71,13.23-13.06v-29.64c0-10.41-5.12-12.53-7.59-12.88l-5.47-.71v-7.76c4.41-1.59,9-3.88,13.41-6.17,5.29-2.82,10.06-6,13.23-8.47h8.82v66.86c0,9.17,6.35,10.76,11.11,12v7.23ZM372.6,374.16c-7.06,0-12.88-5.82-12.88-12.88s5.82-12.88,12.88-12.88,12.88,5.82,12.88,12.88-5.82,12.88-12.88,12.88Z"/>
    <path d="M482.16,460.43c-4.94,15.7-16.76,28.58-36.87,28.58s-42.69-13.06-42.69-44.46,18.35-47.46,43.05-47.46c20.99,0,33.34,11.64,33.34,20.64,0,5.82-3.7,10.06-9.53,10.06-6.53,0-9.53-3.53-11.11-8.82-1.59-5.29-6-13.23-13.41-13.23s-18.7,8.29-18.7,38.11c0,25.05,8.82,35.28,20.82,35.28,13.76,0,23.29-12.88,25.93-22.23l9.17,3.53Z"/>
    <path d="M594.19,486.01h-46.75v-7.41c6-1.59,13.23-3.71,13.23-13.06v-29.64c0-10.41-5.12-12.53-7.59-12.88l-5.47-.71v-7.76c4.41-1.59,9-3.88,13.41-6.17,5.29-2.82,10.06-6,13.23-8.47h8.82v66.86c0,9.17,6.35,10.76,11.11,12v7.23ZM571.79,374.16c-7.06,0-12.88-5.82-12.88-12.88s5.82-12.88,12.88-12.88,12.88,5.82,12.88,12.88-5.82,12.88-12.88,12.88Z"/>
    <path d="M704.81,486.01h-43.93v-7.41c6.17-2.12,11.29-4.06,11.29-12.88v-40.58c0-10.06-5.29-15.35-14.64-15.35-6,0-12.7,3.7-17.99,7.76v48.87c0,9.17,6.35,10.76,11.11,12v7.59h-46.04v-7.76c6-1.59,13.23-3.71,13.23-13.06v-29.46c0-10.41-5.12-12.53-7.59-12.88l-5.47-.53v-7.76c4.41-1.59,9-3.88,13.41-6.17,5.29-2.82,10.06-6,13.23-8.47h8.11v6.88c8.29-5.82,17.47-9.35,27.87-9.35,17.82,0,26.46,9.17,26.46,26.46v40.05c0,10.06,6,13.05,10.94,14.29v7.76Z"/>
    <path d="M820.01,485.48c-3,1.76-9.53,3.53-15.88,3.53-15.88,0-28.4-7.06-28.4-27.17v-53.98h-11.11v-4.76c6.88-3.88,11.82-8.11,16.05-14.11,3.71-5.29,6.88-11.64,10.23-20.29h7.06v31.05h21.7v8.11h-21.7v55.57c0,12.17,6.17,16.05,14.11,16.05,4.41,0,7.06-1.76,7.94-2.47v8.47Z"/>
    <path d="M928.69,486.01h-43.93v-7.41c6.17-2.12,11.29-4.06,11.29-12.88v-40.58c0-10.06-5.29-15.35-14.64-15.35-6,0-12.7,3.7-17.99,7.76v48.87c0,9.17,6.35,10.76,11.11,12v7.59h-46.75v-7.76c6-1.59,13.23-3.71,13.23-13.06v-81.15c0-10.41-5.12-12.53-7.59-12.7l-5.47-.71v-7.59c4.41-1.76,9-3.88,13.41-6.35,5.29-2.82,10.06-5.82,13.23-8.29h8.82v58.39c8.29-5.82,17.47-9.35,27.87-9.35,17.82,0,26.46,9.17,26.46,26.46v40.05c0,10.06,6,13.05,10.94,14.29v7.76Z"/>
    <path d="M1016.19,459.19c-6.53,16.05-16.23,29.82-37.58,29.82-31.05,0-44.81-22.94-44.81-45.87s15.7-46.57,43.4-46.57,38.64,19.05,38.64,32.81c0,2.65-.18,3.53-1.94,3.53h-56.1c-.18,3-.35,6-.35,9.35,0,24.35,9,36.52,22.58,36.52,12.7,0,21.52-10.06,26.46-23.29l9.7,3.7ZM989.73,424.61c0-5.12-1.59-18.52-13.41-18.52-9,0-14.82,5.65-17.47,18.52h30.87Z"/>
    <path d="M1231.96,486.01h-44.1v-7.41c6.17-2.12,11.29-4.06,11.29-12.88v-40.58c0-10.06-5.29-15.35-14.64-15.35-6.53,0-12.88,4.94-16.23,7.76.35,1.94.53,4.23.53,6.35v40.05c0,10.06,6,13.05,10.94,14.29v7.76h-43.93v-7.41c6.17-2.12,11.29-4.06,11.29-12.88v-40.58c0-10.06-5.29-15.35-14.64-15.35-6,0-12.7,4.41-16.23,7.76v48.87c0,9.17,6.35,10.76,11.11,12v7.59h-46.75v-7.76c6-1.59,13.23-3.71,13.23-13.06v-29.46c0-10.41-5.12-12.53-7.59-12.88l-5.47-.53v-7.76c4.41-1.59,9-3.88,13.41-6.17,5.29-2.82,10.06-6,13.23-8.47h8.82v6.88c7.59-5.82,15.7-9.35,26.11-9.35,11.47,0,19.05,3.88,23.11,11.11,7.41-5.47,15.7-11.11,29.11-11.11,17.64,0,26.28,9.17,26.28,26.46v40.05c0,10.06,6,13.05,11.12,14.29v7.76Z"/>
    <path d="M1331.99,486.01h-32.99v-6.88c-8.29,5.82-17.64,9.35-28.05,9.35-17.64,0-26.29-9.17-26.29-26.46v-39.16c0-2.82-2.47-5.12-5.12-5.12h-2.65v-6.7l26.64-12.88h2.65v62.63c0,10.06,5.47,15.35,14.82,15.35,5.82,0,12.7-3.7,18-7.76v-44.46c0-4.06-2.47-6.17-6.35-6.17h-2.12v-6.7l28.05-12.88h2.65v69.86c0,6.35,5.29,9,7.76,9.53l3,.71v7.76Z"/>
    <path d="M1437.84,486.01h-43.93v-7.41c6.17-2.12,11.29-4.06,11.29-12.88v-40.58c0-10.06-5.29-15.35-14.64-15.35-6,0-12.7,3.7-17.99,7.76v48.87c0,9.17,6.35,10.76,11.11,12v7.59h-46.05v-7.76c6-1.59,13.23-3.71,13.23-13.06v-29.46c0-10.41-5.12-12.53-7.59-12.88l-5.47-.53v-7.76c4.41-1.59,9-3.88,13.41-6.17,5.29-2.82,10.06-6,13.23-8.47h8.12v6.88c8.29-5.82,17.47-9.35,27.87-9.35,17.82,0,26.46,9.17,26.46,26.46v40.05c0,10.06,6,13.05,10.94,14.29v7.76Z"/>
    <path d="M1541.05,486.01h-33.52v-3.88c-5.29,3.71-12.17,6-20.82,6-23.11,0-42.69-14.99-42.69-42.87s16.23-47.99,43.75-47.99c7.94,0,14.47,1.59,19.76,4.23v-17.29c0-10.41-5.11-12.53-7.76-12.88l-5.29-.53v-7.76c4.24-1.76,9-3.88,13.41-6.35,5.29-2.82,10.06-5.82,13.23-8.47h8.64v118.55c0,9.17,6.53,10.76,11.29,12v7.23ZM1507.53,414.73c-2.82-5.29-7.41-9-14.29-9-16.94,0-25.23,16.76-25.23,38.46s11.11,34.58,22.23,34.58c6.53,0,12.88-3.71,17.29-10.59v-53.45Z"/>
    <path d="M1635.79,482.13c-2.82,3.18-8.29,5.65-14.82,5.65-7.41,0-13.41-1.94-17.64-7.06-4.41,3.71-12.52,8.64-26.64,8.64-16.58,0-30.17-7.76-30.17-23.46,0-21.17,24.88-27.17,36.52-30.52,6.53-1.94,12.88-3.88,17.64-5.47v-10.06c0-9.53-5.29-14.99-11.82-14.99-6,0-10.23,4.76-12.7,10.58-2.82,6.35-5.65,10.41-11.64,10.41-6.35,0-9.7-3.88-9.7-9.35,0-9.53,13.05-19.94,33.87-19.94s34.4,10.06,34.4,26.11v46.22c0,7.94,9.17,10.76,12.7,9.17v4.06ZM1600.68,440.67c-12.53.53-31.4,8.82-31.4,22.23,0,10.06,5.47,15.52,14.47,15.52s16.94-6.53,16.94-15.7v-22.05Z"/>
    <path d="M1742.17,486.01h-43.93v-7.41c6.17-2.12,11.29-4.06,11.29-12.88v-40.58c0-10.06-5.29-15.35-14.64-15.35-6,0-12.7,3.7-17.99,7.76v48.87c0,9.17,6.35,10.76,11.11,12v7.59h-46.05v-7.76c6-1.59,13.23-3.71,13.23-13.06v-29.46c0-10.41-5.12-12.53-7.59-12.88l-5.47-.53v-7.76c4.41-1.59,9-3.88,13.41-6.17,5.29-2.82,10.06-6,13.23-8.47h8.12v6.88c8.29-5.82,17.47-9.35,27.87-9.35,17.82,0,26.46,9.17,26.46,26.46v40.05c0,10.06,6,13.05,10.94,14.29v7.76Z"/>
    <path d="M1831.44,459.19c-6.53,16.05-16.23,29.82-37.58,29.82-31.05,0-44.81-22.94-44.81-45.87s15.7-46.57,43.4-46.57,38.64,19.05,38.64,32.81c0,2.65-.18,3.53-1.94,3.53h-56.1c-.18,3-.35,6-.35,9.35,0,24.35,9,36.52,22.58,36.52,12.7,0,21.52-10.06,26.46-23.29l9.7,3.7ZM1804.98,424.61c0-5.12-1.59-18.52-13.41-18.52-9,0-14.82,5.65-17.47,18.52h30.87Z"/>
  </g>
</svg>