<?xml version="1.0" encoding="UTF-8"?>
<svg id="Layer_1" data-name="Layer 1" xmlns="http://www.w3.org/2000/svg" viewBox="0 0 1881.76 1331.07">
  <path d="M126.12,3.28h45.86v1.64c-13.1,2.18-19.93,19.93-31.67,52.69l-53.23,147.69h-2.18L24.84,38.22C16.93,15.83,11.47,6.01,0,4.91v-1.64h69.89v1.64c-15.29,1.09-20.47,10.1-15.01,25.93l44.23,126.4,36.04-101.28c11.47-32.21,9.55-48.87-9.01-51.05v-1.64Z"/>
  <path d="M220.03,166.53c0,20.2,1.09,33.85,19.66,33.85v1.64h-69.89v-1.64c18.56,0,19.66-13.65,19.66-33.85V38.77c0-20.2-1.09-33.85-19.66-33.85v-1.64h69.89v1.64c-18.56,0-19.66,13.65-19.66,33.85v127.76ZM250.34,84.35c49.41,76.71,75.07,112.75,89.27,116.02v1.64c-9.55,1.09-21.29,1.09-27.3,1.09-23.48,0-33.85-18.56-85.17-99.37l48.87-57.6c11.74-13.65,16.93-22.39,16.93-30.03,0-6.83-5.19-10.65-10.65-11.19v-1.64h52.42v1.64c-9.28,1.64-29.21,14.74-54.6,44.5l-29.76,34.94Z"/>
  <path d="M385.47,103.19c0-61.15,39.58-103.19,93.91-103.19,27.3,0,46.41,8.19,58.97,14.74l1.64,37.67h-1.64c-13.1-30.58-31.67-48.59-60.06-48.59-36.04,0-58.97,42.04-58.97,98.82s23.48,98.82,58.97,98.82c28.39,0,49.14-19.11,62.24-53.51h1.64l-4.91,43.68c-12.56,6.01-31.67,13.65-57.88,13.65-54.33,0-93.91-39.31-93.91-102.1Z"/>
  <path d="M713.07,200.38v1.64c-4.37.55-18.02,1.09-26.21,1.09-19.66,0-24.57-8.74-58.42-82.99-4.64-9.83-9.28-12.01-18.02-12.01h-11.19v58.42c0,20.2,1.09,33.85,19.66,33.85v1.64h-69.89v-1.64c18.56,0,19.66-13.65,19.66-33.85V38.77c0-20.2-1.09-33.85-19.66-33.85v-1.64h73.71c43.68,0,67.7,20.2,67.7,51.87,0,26.75-19.93,43.68-44.5,50.23v.55c7.92,4.64,14.74,15.56,21.29,28.12,27.3,52.42,32.76,61.97,45.86,66.34ZM599.23,103.74h18.56c27.03,0,40.95-16.65,40.95-46.41s-12.83-49.69-40.68-49.69h-8.46c-6.55,0-10.37,3.28-10.37,9.83v86.27Z"/>
  <path d="M855.57,153.7l-6.55,48.32h-140.05v-1.64c18.56,0,19.66-13.65,19.66-33.85V38.77c0-20.2-1.09-33.85-19.66-33.85v-1.64h135.95l3.55,43.13h-1.64c-15.01-31.94-25.12-38.77-55.15-38.77h-32.49v88.72h24.84c25.39,0,31.94-6.82,37.4-27.03h1.64v60.61h-1.64c-5.46-20.2-12.01-29.21-37.4-29.21h-24.84v84.08c0,8.19,2.46,12.83,10.92,12.83h25.39c28.39,0,40.95-6.01,58.42-43.95h1.64Z"/>
  <path d="M998.89,167.07c7.92,22.39,13.38,32.21,24.84,33.31v1.64h-69.89v-1.64c15.29-1.09,20.47-11.47,15.29-25.93l-14.2-40.13h-60.88l-5.46,15.01c-11.47,32.21-9.55,48.87,9.01,51.05v1.64h-45.86v-1.64c13.1-1.64,19.93-19.93,31.67-52.69L936.65,0h2.18l60.06,167.07ZM896.25,127.76h56.51l-28.12-79.71-28.39,79.71Z"/>
  <path d="M1141.95,46.41h-1.64c-15.01-31.94-24.57-38.77-50.78-38.77h-8.46v158.88c0,20.2,1.09,33.85,19.66,33.85v1.64h-69.89v-1.64c18.56,0,19.66-13.65,19.66-33.85V7.64h-8.46c-25.93,0-35.76,6.83-50.78,38.77h-1.64l3.82-43.13h144.69l3.82,43.13Z"/>
  <path d="M1146.59,202.02v-1.64c18.56,0,19.66-13.65,19.66-33.85V38.77c0-20.2-1.09-33.85-19.66-33.85v-1.64h69.89v1.64c-18.56,0-19.66,13.65-19.66,33.85v127.76c0,20.2,1.09,33.85,19.66,33.85v1.64h-69.89Z"/>
  <path d="M1340.41,3.28h45.86v1.64c-13.1,2.18-19.93,19.93-31.67,52.69l-53.23,147.69h-2.18l-60.06-167.07c-7.92-22.39-13.38-32.21-24.84-33.31v-1.64h69.89v1.64c-15.29,1.09-20.47,10.1-15.01,25.93l44.22,126.4,36.04-101.28c11.47-32.21,9.55-48.87-9.01-51.05v-1.64Z"/>
  <path d="M1530.69,153.7l-6.55,48.32h-140.05v-1.64c18.56,0,19.66-13.65,19.66-33.85V38.77c0-20.2-1.09-33.85-19.66-33.85v-1.64h135.95l3.55,43.13h-1.64c-15.01-31.94-25.12-38.77-55.14-38.77h-32.49v88.72h24.84c25.39,0,31.94-6.82,37.4-27.03h1.64v60.61h-1.64c-5.46-20.2-12.01-29.21-37.4-29.21h-24.84v84.08c0,8.19,2.46,12.83,10.92,12.83h25.39c28.39,0,40.95-6.01,58.42-43.95h1.64Z"/>
  <path d="M1588.29,132.67c0-44.5,28.94-76.98,66.34-76.98,19.38,0,36.85,9.83,46.68,22.93l-13.1,19.11h-1.64c-4.91-21.02-14.2-38.22-31.94-38.22-24.3,0-36.85,28.66-36.85,61.42,0,38.76,14.74,68.25,43.13,68.25,18.56,0,33.03-10.65,41.22-22.66l1.64,1.09c-10.1,18.02-26.21,37.67-55.69,37.67-37.95,0-59.79-32.49-59.79-72.62Z"/>
  <path d="M1706.23,131.04c0-45.32,28.39-75.35,67.7-75.35s67.16,28.39,67.16,74.25-28.39,75.35-67.7,75.35-67.16-28.39-67.16-74.25ZM1810.51,130.49c0-38.77-12.01-70.98-37.13-70.98s-36.58,30.58-36.58,70.98,12.01,70.98,37.13,70.98,36.58-30.58,36.58-70.98Z"/>
  <path d="M1845.73,187.27c0-9.83,8.19-18.02,18.02-18.02s18.02,8.19,18.02,18.02-8.19,18.02-18.02,18.02-18.02-8.19-18.02-18.02Z"/>
</svg>